<svg xmlns="http://www.w3.org/2000/svg" width="124" height="55" fill="none"><path fill="#000" d="M14.29 11.713c-1.612 0-3.224.807-3.224 4.91v21.621c0 4.105 1.612 4.91 3.225 4.91 1.612 0 3.298-.805 3.298-4.91v-4.91c0-1.612 1.246-2.858 2.785-2.858h5.35a2.862 2.862 0 0 1 2.858 2.858v4.104c0 8.429-3.81 16.637-13.412 16.637h-1.759c-9.6 0-13.339-8.208-13.339-16.637V17.43C.072 9.002 3.81.793 13.412.793h1.758c9.601 0 13.412 8.209 13.412 16.637v4.104a2.862 2.862 0 0 1-2.858 2.859h-5.35c-1.54 0-2.785-1.246-2.785-2.859v-4.91c0-4.104-1.686-4.91-3.298-4.91ZM44.103 1.82h5.79c2.345 0 3.078.513 3.518 2.712l9.454 45.733c.074.293.147.66.147.953 0 1.026-.587 1.905-1.832 1.905h-5.717c-1.979 0-3.445-.44-3.738-2.638l-.733-5.497h-7.988l-.66 5.497c-.293 2.199-1.832 2.638-3.811 2.638h-5.717c-1.172 0-1.759-.66-1.759-1.832 0-.293 0-.586.074-.88l9.454-45.879c.44-2.199 1.173-2.712 3.518-2.712Zm0 35.326h5.863l-2.345-17.59c-.073-.44-.293-.586-.586-.586-.294 0-.587.147-.66.586l-2.272 17.59Zm29.523 15.977h-5.35c-1.54 0-2.785-1.319-2.785-2.858V4.678c0-1.613 1.245-2.859 2.785-2.859H80.88c9.601 0 13.34 8.282 13.34 16.637v.806c0 5.57-1.613 11.14-5.57 14.145l5.423 16.124c.073.293.146.586.146.88 0 1.319-.88 2.711-2.345 2.711h-5.497c-1.392 0-2.785-.513-3.298-1.905l-5.203-15.245h-1.393v14.292c0 1.54-1.32 2.858-2.858 2.858ZM80 13.546h-3.518v10.7h3.518c1.612 0 3.225-.88 3.225-4.984v-.806c0-4.104-1.613-4.91-3.225-4.91Zm31.76 39.576h-5.277a2.862 2.862 0 0 1-2.859-2.858V12.813h-5.79c-1.612 0-2.858-1.246-2.858-2.859V4.678c0-1.613 1.246-2.859 2.859-2.859h22.573c1.612 0 2.858 1.246 2.858 2.859v5.276c0 1.613-1.246 2.859-2.858 2.859h-5.79v37.451a2.862 2.862 0 0 1-2.858 2.858Z"/></svg>