<svg xmlns="http://www.w3.org/2000/svg" id="Layer_1" data-name="Layer 1" viewBox="0 0 1190.55 425.2"><defs><style>.cls-1{fill:#ec627f}.cls-1,.cls-2,.cls-3,.cls-5{stroke-width:0}.cls-2{fill:#ee4749}.cls-5{fill:#b03334}</style></defs><path d="M797.29 348.13c-.27-.48-.43-1.07-.16-1.23.21 0 1.02.54 1.5.59 1.13.16 2.36-.54 3.76-2.2.7-.81 1.56-2.47 2.58-4.99 1.29-3.27 1.34-4.83.11-4.67-.81.11-1.77 1.07-3.01 2.95-1.18 1.83-2.09 3.49-2.79 4.99-.7 1.45-.91 2.31-2.68 1.66-1.66-.64-1.99-1.82-1.83-3.81.05-.7.11-1.5.27-2.31.38-1.72.48-2.52 1.13-4.51l.64-2.09.86-2.31.81-2.09c2.15-5.85 4.19-10.79 6.12-14.81.64-1.39 3.81.7 3.38 2.04-.27.7-1.13 2.74-2.58 6.07-1.45 3.33-2.74 6.49-3.92 9.55-1.13 3.06-1.72 5.1-1.72 6.23 1.77-2.68 3.6-4.02 5.37-4.02 1.4 0 2.52.59 3.38 1.77 1.34 1.83 1.4 4.29.16 7.46-1.02 2.74-2.58 4.99-4.67 6.66-.91.81-1.88 1.18-2.95 1.18-1.72 0-2.95-.7-3.76-2.09ZM811.1 366.6c0-.05-.05-.43-.05-.64 0-.32.05-.64.11-.91.27-.48.48-.75.64-.75.11 0 .43.32.91.97l.86 1.02c.21.21.59.32 1.02.27.48-.11 1.29-1.18 2.52-3.17.7-1.23 1.88-3.6 3.54-7.09.64-1.34 1.61-3.76 2.95-7.25.38-.86.91-2.63 1.72-5.26.8-2.63 1.29-4.56 1.39-5.69-1.66 2.2-4.24 4.78-7.67 7.68-1.77 1.5-3.06 2.25-3.86 2.25-2.09 0-3.33-1.88-3.33-4.62 0-.81.11-1.61.32-2.47 1.13-4.78 2.15-7.3 3.17-7.51.37-.11 1.07.16 1.99.86.7.54 1.02.97 1.02 1.23 0 .16-.05.32-.16.54-.64 1.34-1.13 2.47-1.45 3.27-.7 1.72-1.07 3.06-1.07 4.08 0 .91 2.68-1.4 8.1-6.82l.21-.21 1.18-1.29c1.07-1.23 1.93-2.04 2.84-2.63.38-.21.81-.32 1.29-.32 1.34 0 2.52.86 2.47 2.2 0 .81-1.02 2.79-1.23 4.24-.38 2.2-1.39 5.8-3.11 10.68-1.66 4.94-3.7 9.66-6.07 14.22-2.31 4.56-4.24 6.82-5.8 6.82-2.09.21-4.08-1.56-4.46-3.7ZM855.87 327.36l8.16 20.99c.05.11.11.27.11.38 0 .21-.16.43-.54.43h-6.28c-.91 0-1.23-.48-1.45-.97l-4.72-12.77-1.45 2.42v9.23c0 1.13-.91 2.09-2.09 2.09h-3.86c-1.13 0-2.09-.97-2.09-2.09v-33.39c0-1.18.97-2.09 2.09-2.09h3.86c1.18 0 2.09.91 2.09 2.09v9.45c0 .27.16.43.38.43s.43-.16.54-.43l5.47-10.2c.59-.97.97-1.34 2.09-1.34h5.26c.43 0 .64.27.64.59 0 .16-.05.32-.16.48l-8.05 14.71ZM867.37 349.15c-1.13 0-2.09-.97-2.09-2.09v-33.39c0-1.18.97-2.09 2.09-2.09h14.92c1.18 0 2.09.91 2.09 2.09v3.86c0 1.18-.91 2.09-2.09 2.09h-8.96v6.71h6.66c1.13 0 2.09.91 2.09 2.09v3.86c0 1.18-.97 2.09-2.09 2.09h-6.66v6.71h8.96c1.18 0 2.09.91 2.09 2.09v3.86c0 1.13-.91 2.09-2.09 2.09h-14.92ZM894.32 349.15c-1.18 0-2.09-.97-2.09-2.09v-27.43h-4.24c-1.18 0-2.09-.91-2.09-2.09v-3.86c0-1.18.91-2.09 2.09-2.09h16.53c1.18 0 2.09.91 2.09 2.09v3.86c0 1.18-.91 2.09-2.09 2.09h-4.24v27.43c0 1.13-.91 2.09-2.09 2.09h-3.86ZM917.65 349.85c-7.03 0-9.77-6.01-9.77-12.18v-14.65c0-6.17 2.74-12.18 9.77-12.18h1.5c7.03 0 9.77 6.01 9.77 12.18v14.65c0 6.17-2.74 12.18-9.77 12.18h-1.5Zm.64-31.02c-1.18 0-2.36.59-2.36 3.6v15.83c0 3.01 1.18 3.6 2.36 3.6h.21c1.18 0 2.36-.59 2.36-3.6v-15.83c0-3.01-1.18-3.6-2.36-3.6h-.21ZM951.36 337.13c0-2.25-1.5-2.9-3.11-3.01-6.87 0-9.23-4.94-9.23-10.73v-1.5c0-5.8 2.36-11.06 9.23-11.06h1.34c7.35 0 9.23 5.96 9.23 12.18 0 1.18-.97 2.09-2.09 2.09h-3.33c-1.13 0-2.09-.91-2.09-2.09v-1.77c0-1.77-1.18-2.63-2.36-2.63s-2.42.86-2.42 2.63v2.25c0 2.31 1.45 2.95 3.11 3.06 6.87 0 9.23 4.94 9.23 10.73v1.5c0 5.8-2.36 11.06-9.23 11.06h-1.34c-7.35 0-9.23-5.96-9.23-12.18 0-1.13.97-2.09 2.09-2.09h3.33c1.13 0 2.09.97 2.09 2.09v1.77c0 1.77 1.18 2.63 2.36 2.63s2.42-.86 2.42-2.63v-2.31ZM968.61 349.15c-1.18 0-2.09-.97-2.09-2.09v-27.43h-4.24c-1.18 0-2.09-.91-2.09-2.09v-3.86c0-1.18.91-2.09 2.09-2.09h16.53c1.18 0 2.09.91 2.09 2.09v3.86c0 1.18-.91 2.09-2.09 2.09h-4.24v27.43c0 1.13-.91 2.09-2.09 2.09h-3.86ZM984.44 349.15c-1.13 0-2.04-.97-2.04-2.09v-33.39c0-1.18.91-2.09 2.04-2.09h9.23c7.03 0 9.77 6.07 9.77 12.18v.59c0 4.08-1.18 8.16-4.08 10.36l3.97 11.81c.05.21.11.43.11.64 0 .97-.64 1.99-1.72 1.99h-4.03c-1.02 0-2.04-.38-2.42-1.4l-3.81-11.16h-1.02v10.47c0 1.13-.97 2.09-2.09 2.09h-3.92Zm6.01-28.99V328h2.58c1.18 0 2.36-.64 2.36-3.65v-.59c0-3.01-1.18-3.6-2.36-3.6h-2.58ZM1007.04 349.15c-1.13 0-2.09-.97-2.09-2.09v-33.39c0-1.18.97-2.09 2.09-2.09h14.92c1.18 0 2.09.91 2.09 2.09v3.86c0 1.18-.91 2.09-2.09 2.09H1013v6.71h6.66c1.13 0 2.09.91 2.09 2.09v3.86c0 1.18-.97 2.09-2.09 2.09H1013v6.71h8.96c1.18 0 2.09.91 2.09 2.09v3.86c0 1.13-.91 2.09-2.09 2.09h-14.92ZM1027.65 349.15c-1.13 0-2.09-.97-2.09-2.09v-33.39c0-1.18.97-2.09 2.09-2.09h14.92c1.18 0 2.09.91 2.09 2.09v3.86c0 1.18-.91 2.09-2.09 2.09h-8.96v6.71h6.66c1.13 0 2.09.91 2.09 2.09v3.86c0 1.18-.97 2.09-2.09 2.09h-6.66v6.71h8.96c1.18 0 2.09.91 2.09 2.09v3.86c0 1.13-.91 2.09-2.09 2.09h-14.92ZM1054.6 349.15c-1.18 0-2.09-.97-2.09-2.09v-27.43h-4.24c-1.18 0-2.09-.91-2.09-2.09v-3.86c0-1.18.91-2.09 2.09-2.09h16.53c1.18 0 2.09.91 2.09 2.09v3.86c0 1.18-.91 2.09-2.09 2.09h-4.24v27.43c0 1.13-.91 2.09-2.09 2.09h-3.86Z" class="cls-3"/><path d="M102.19 317.28h-5.44v19.25h14.62v-4.32h-9.18v-14.93zM130.56 319.74c-.95-.91-2.08-1.61-3.37-2.1s-2.72-.74-4.28-.74-2.96.25-4.26.74c-1.3.49-2.43 1.2-3.39 2.1-.96.91-1.71 1.97-2.24 3.17-.53 1.21-.8 2.54-.8 3.99s.26 2.78.8 3.99a9.717 9.717 0 0 0 2.24 3.18c.96.91 2.09 1.61 3.39 2.1 1.3.49 2.72.74 4.26.74s2.98-.25 4.28-.74c1.29-.49 2.41-1.19 3.37-2.09.95-.9 1.7-1.96 2.24-3.17.54-1.22.81-2.55.81-4s-.27-2.78-.81-3.99a9.872 9.872 0 0 0-2.24-3.17Zm-2.85 9.41c-.27.68-.63 1.26-1.1 1.75-.47.49-1.02.86-1.65 1.11-.63.26-1.32.38-2.05.38s-1.42-.13-2.05-.38a4.9 4.9 0 0 1-1.65-1.11c-.47-.49-.83-1.07-1.1-1.75-.27-.68-.4-1.43-.4-2.25s.13-1.6.4-2.27c.27-.67.63-1.25 1.1-1.73.47-.49 1.02-.86 1.65-1.11.63-.26 1.31-.39 2.05-.39s1.42.13 2.05.39a4.9 4.9 0 0 1 1.65 1.11c.47.49.83 1.06 1.1 1.73.27.67.4 1.43.4 2.27s-.13 1.58-.4 2.25ZM156.77 329.68l-3.89-12.4h-5l-4.07 12.29-3.88-12.29h-5.6l6.24 19.25h5.82l3.85-11.72 3.69 11.72h5.83l6.23-19.25h-5.19l-4.03 12.4zM166.71 324.76h8.03v4.01h-8.03zM192.71 330.15c-.62.73-1.31 1.29-2.05 1.68-.74.38-1.57.58-2.49.58-.79 0-1.51-.13-2.17-.38-.66-.26-1.22-.63-1.69-1.11-.47-.49-.83-1.07-1.1-1.75-.27-.68-.4-1.43-.4-2.25s.13-1.58.4-2.25c.27-.68.63-1.26 1.1-1.75.47-.49 1.03-.86 1.69-1.11.66-.26 1.38-.39 2.17-.39.92 0 1.75.19 2.49.58.74.38 1.42.94 2.05 1.68l3.46-3.13a9.084 9.084 0 0 0-3.51-2.69c-1.4-.62-2.99-.93-4.77-.93-1.52 0-2.93.24-4.22.73-1.29.49-2.41 1.18-3.35 2.08-.94.9-1.68 1.96-2.21 3.17-.53 1.22-.8 2.56-.8 4.03s.26 2.81.8 4.03a9.723 9.723 0 0 0 2.21 3.18c.94.9 2.06 1.59 3.35 2.08s2.7.73 4.22.73c1.78 0 3.37-.32 4.77-.95 1.4-.63 2.57-1.53 3.51-2.68l-3.46-3.13ZM204.45 317.28l-8.49 19.24h5.55l1.5-3.74h8.16l1.5 3.74h5.66l-8.52-19.24h-5.36Zm.17 11.49 2.47-6.15 2.47 6.15h-4.94ZM236.17 328.16c.7-1.05 1.05-2.3 1.05-3.75s-.35-2.74-1.05-3.81c-.7-1.07-1.68-1.89-2.95-2.46-1.27-.57-2.79-.85-4.55-.85h-8.8v19.24h5.44v-5.11h2.97l3.49 5.11h5.83l-4.16-6.07c1.16-.55 2.08-1.32 2.73-2.31Zm-5.29-1.69c-.56.49-1.41.74-2.54.74h-3.02v-5.64h3.02c1.14 0 1.98.25 2.54.74s.84 1.19.84 2.09-.28 1.57-.84 2.06ZM255.33 326.62c-.12-.05-.25-.09-.38-.13.77-.41 1.4-.93 1.85-1.57.52-.74.78-1.61.78-2.6 0-1.5-.62-2.72-1.87-3.64-1.25-.93-3.13-1.39-5.66-1.39h-9.84v19.24h10.39c2.58 0 4.55-.46 5.9-1.39 1.35-.93 2.02-2.22 2.02-3.89 0-1.12-.28-2.07-.84-2.85-.56-.78-1.34-1.37-2.35-1.79Zm-9.73-5.4h3.74c.92 0 1.6.15 2.06.45.46.3.69.77.69 1.39s-.23 1.09-.69 1.4c-.46.31-1.15.47-2.06.47h-3.74v-3.71Zm6.69 10.9c-.49.32-1.2.48-2.13.48h-4.56v-3.9h4.56c.93 0 1.64.16 2.13.48.49.32.73.81.73 1.47s-.24 1.15-.73 1.47ZM269.35 316.13h4.78v25.73h-4.78zM292 322.91c.48-.49 1.05-.86 1.73-1.11s1.43-.39 2.25-.39c.93 0 1.78.18 2.54.54.76.36 1.47.89 2.13 1.61l3.46-3.13c-.93-1.14-2.12-2.01-3.55-2.61-1.43-.6-3.05-.91-4.87-.91-1.56 0-2.99.24-4.3.73-1.31.49-2.44 1.18-3.39 2.08-.95.9-1.7 1.96-2.23 3.17-.53 1.22-.8 2.56-.8 4.03s.26 2.81.8 4.03a9.723 9.723 0 0 0 2.21 3.18c.94.9 2.07 1.59 3.37 2.08 1.3.49 2.71.73 4.23.73 1.39 0 2.81-.21 4.26-.63 1.45-.42 2.72-1.03 3.82-1.81v-7.97h-4.81v5.28c-.19.09-.39.17-.58.23-.77.27-1.56.4-2.36.4s-1.54-.13-2.21-.4c-.67-.26-1.24-.64-1.72-1.13-.48-.49-.85-1.07-1.11-1.75-.27-.68-.4-1.42-.4-2.23s.13-1.6.4-2.27c.27-.67.64-1.25 1.11-1.73ZM312.59 317.28h-5.44v19.25h14.62v-4.32h-9.18v-14.93zM336.29 327.78c0 1.65-.32 2.83-.96 3.55s-1.53 1.07-2.67 1.07-2.03-.36-2.68-1.07c-.65-.71-.98-1.9-.98-3.55v-10.5h-5.44v10.67c0 2.86.8 5.07 2.39 6.62 1.59 1.56 3.81 2.34 6.65 2.34s5.06-.78 6.65-2.34c1.59-1.56 2.39-3.77 2.39-6.62v-10.67h-5.36v10.5ZM343.22 321.6h5.91v14.93h5.44V321.6h5.88v-4.32h-17.23v4.32zM367.87 328.8h8.55v-4.07h-8.55v-3.24h9.71v-4.21h-15.09v19.25h15.45v-4.21h-10.07v-3.52zM393.93 327.54l-8.49-10.26h-4.48v19.25h5.33v-10.26l8.5 10.26h4.48v-19.25h-5.34v10.26zM402.79 324.76h8.03v4.01h-8.03zM414.33 336.53h5.44v-6.6h8.5v-4.21h-8.5v-4.23h9.65v-4.21h-15.09v19.25zM448.28 328.16c.7-1.05 1.04-2.3 1.04-3.75s-.35-2.74-1.04-3.81c-.7-1.07-1.68-1.89-2.95-2.46-1.27-.57-2.79-.85-4.55-.85h-8.8v19.24h5.44v-5.11h2.97l3.49 5.11h5.83l-4.16-6.07c1.16-.55 2.08-1.32 2.73-2.31Zm-5.29-1.69c-.56.49-1.41.74-2.54.74h-3.02v-5.64h3.02c1.14 0 1.98.25 2.54.74s.84 1.19.84 2.09-.28 1.57-.84 2.06ZM457.71 328.8h8.55v-4.07h-8.55v-3.24h9.7v-4.21h-15.09v19.25h15.45v-4.21h-10.06v-3.52zM476.18 328.8h8.55v-4.07h-8.55v-3.24h9.71v-4.21h-15.1v19.25h15.45v-4.21h-10.06v-3.52zM497.27 316.13h4.78v25.73h-4.78zM526.87 327.54l-8.49-10.26h-4.48v19.25h5.33v-10.26l8.49 10.26h4.48v-19.25h-5.33v10.26zM553.4 319.74c-.95-.91-2.08-1.61-3.37-2.1s-2.72-.74-4.28-.74-2.96.25-4.26.74c-1.3.49-2.43 1.2-3.39 2.1-.96.91-1.71 1.97-2.24 3.17-.53 1.21-.8 2.54-.8 3.99s.26 2.78.8 3.99a9.717 9.717 0 0 0 2.24 3.18c.96.91 2.09 1.61 3.39 2.1 1.3.49 2.72.74 4.26.74s2.98-.25 4.28-.74c1.29-.49 2.41-1.19 3.37-2.09.95-.9 1.7-1.96 2.24-3.17.54-1.22.81-2.55.81-4s-.27-2.78-.81-3.99a9.872 9.872 0 0 0-2.24-3.17Zm-2.85 9.41c-.27.68-.63 1.26-1.1 1.75-.47.49-1.02.86-1.65 1.11-.63.26-1.32.38-2.05.38s-1.42-.13-2.05-.38a4.9 4.9 0 0 1-1.65-1.11c-.47-.49-.83-1.07-1.1-1.75-.27-.68-.4-1.43-.4-2.25s.13-1.6.4-2.27c.27-.67.63-1.25 1.1-1.73.47-.49 1.02-.86 1.65-1.11.63-.26 1.31-.39 2.05-.39s1.42.13 2.05.39a4.9 4.9 0 0 1 1.65 1.11c.47.49.83 1.06 1.1 1.73.27.67.4 1.43.4 2.27s-.13 1.58-.4 2.25ZM573.49 317.28 565 336.52h5.55l1.5-3.74h8.16l1.5 3.74h5.66l-8.52-19.24h-5.36Zm.17 11.49 2.47-6.15 2.47 6.15h-4.94ZM603.62 318.47c-1.61-.79-3.48-1.18-5.61-1.18h-9.1v19.24h9.1c2.13 0 3.99-.39 5.61-1.18 1.61-.79 2.87-1.9 3.78-3.34.91-1.44 1.36-3.14 1.36-5.1s-.45-3.68-1.36-5.11-2.17-2.54-3.78-3.33Zm-1.05 11.28c-.46.8-1.09 1.4-1.91 1.81-.81.41-1.77.62-2.87.62h-3.44v-10.56h3.44c1.1 0 2.06.21 2.87.62.82.41 1.45 1.01 1.91 1.8.46.79.69 1.74.69 2.86s-.23 2.05-.69 2.84ZM626.33 318.47c-1.61-.79-3.48-1.18-5.61-1.18h-9.1v19.24h9.1c2.13 0 4-.39 5.61-1.18 1.61-.79 2.87-1.9 3.78-3.34.91-1.44 1.36-3.14 1.36-5.1s-.45-3.68-1.36-5.11c-.91-1.43-2.17-2.54-3.78-3.33Zm-1.05 11.28c-.46.8-1.09 1.4-1.91 1.81-.81.41-1.77.62-2.87.62h-3.44v-10.56h3.44c1.1 0 2.06.21 2.87.62.82.41 1.45 1.01 1.91 1.8.46.79.69 1.74.69 2.86s-.23 2.05-.69 2.84ZM639.71 328.8h8.55v-4.07h-8.55v-3.24h9.71v-4.21h-15.09v19.25h15.44v-4.21h-10.06v-3.52zM667.51 318.47c-1.61-.79-3.48-1.18-5.61-1.18h-9.1v19.24h9.1c2.13 0 4-.39 5.61-1.18 1.61-.79 2.87-1.9 3.78-3.34.91-1.44 1.36-3.14 1.36-5.1s-.45-3.68-1.36-5.11-2.17-2.54-3.78-3.33Zm-1.05 11.28c-.46.8-1.09 1.4-1.91 1.81-.81.41-1.77.62-2.87.62h-3.44v-10.56h3.44c1.1 0 2.06.21 2.87.62.82.41 1.45 1.01 1.91 1.8.46.79.69 1.74.69 2.86s-.23 2.05-.69 2.84ZM696.64 326.56c-.64-.41-1.35-.74-2.13-.99s-1.56-.45-2.34-.62c-.78-.16-1.49-.33-2.14-.48-.65-.16-1.17-.36-1.57-.6-.39-.25-.59-.58-.59-1 0-.33.1-.62.3-.88.2-.26.53-.46.99-.62.46-.16 1.06-.23 1.81-.23.84 0 1.71.12 2.61.37.9.25 1.8.62 2.72 1.11l1.68-4.04c-.95-.55-2.04-.97-3.26-1.25-1.22-.28-2.46-.43-3.73-.43-1.89 0-3.46.28-4.73.85-1.26.57-2.21 1.32-2.85 2.25-.63.93-.95 1.98-.95 3.13 0 1.03.2 1.87.6 2.54.4.67.93 1.21 1.57 1.62.64.41 1.35.75 2.13 1 .78.26 1.56.47 2.34.63.78.16 1.49.33 2.13.49.64.16 1.16.38 1.57.63.4.26.6.6.6 1.05 0 .31-.11.58-.32.81-.21.23-.55.41-1 .55-.46.14-1.06.21-1.81.21-1.12 0-2.24-.18-3.37-.54-1.13-.36-2.12-.81-2.98-1.36l-1.79 4.01c.92.62 2.1 1.13 3.56 1.53 1.46.39 2.97.59 4.55.59 1.91 0 3.49-.28 4.74-.85 1.26-.57 2.2-1.32 2.83-2.27.63-.94.95-1.97.95-3.09 0-1.01-.2-1.85-.59-2.52-.39-.67-.91-1.21-1.55-1.62ZM713.85 327.78c0 1.65-.32 2.83-.96 3.55-.64.71-1.53 1.07-2.67 1.07s-2.03-.36-2.68-1.07c-.65-.71-.98-1.9-.98-3.55v-10.5h-5.44v10.67c0 2.86.8 5.07 2.39 6.62 1.59 1.56 3.81 2.34 6.65 2.34s5.06-.78 6.65-2.34c1.59-1.56 2.39-3.77 2.39-6.62v-10.67h-5.36v10.5ZM728.91 322.91a4.6 4.6 0 0 1 1.73-1.11c.68-.26 1.43-.39 2.25-.39.93 0 1.78.18 2.54.54.76.36 1.47.89 2.13 1.61l3.46-3.13c-.93-1.14-2.12-2.01-3.55-2.61-1.43-.6-3.05-.91-4.87-.91-1.56 0-2.99.24-4.3.73-1.31.49-2.44 1.18-3.39 2.08-.95.9-1.7 1.96-2.23 3.17-.53 1.22-.8 2.56-.8 4.03s.27 2.81.8 4.03a9.723 9.723 0 0 0 2.21 3.18c.94.9 2.07 1.59 3.37 2.08 1.3.49 2.71.73 4.23.73 1.39 0 2.81-.21 4.26-.63 1.45-.42 2.72-1.03 3.82-1.81v-7.97h-4.81v5.28c-.19.09-.39.17-.58.23-.77.27-1.56.4-2.36.4s-1.54-.13-2.21-.4c-.67-.26-1.24-.64-1.72-1.13-.48-.49-.85-1.07-1.11-1.75-.27-.68-.4-1.42-.4-2.23s.13-1.6.4-2.27c.27-.67.64-1.25 1.11-1.73ZM750.25 317.28l-8.49 19.24h5.55l1.5-3.74h8.16l1.5 3.74h5.66l-8.52-19.24h-5.36Zm.17 11.49 2.47-6.15 2.47 6.15h-4.94ZM779.24 330.46c1.16-.55 2.08-1.32 2.73-2.31.7-1.05 1.04-2.3 1.04-3.75s-.35-2.74-1.04-3.81c-.7-1.07-1.68-1.89-2.96-2.46-1.27-.57-2.79-.85-4.55-.85h-8.8v19.24h5.44v-5.11h2.97l3.49 5.11h5.83l-4.16-6.07Zm-2.56-4c-.56.49-1.41.74-2.54.74h-3.02v-5.64h3.02c1.14 0 1.98.25 2.54.74s.84 1.19.84 2.09-.28 1.57-.84 2.06Z" class="cls-1"/><path d="M1086.03 310.68c-6.92 0-12.55 5.6-12.55 12.48s5.63 12.55 12.55 12.55 12.48-5.63 12.48-12.55-5.6-12.48-12.48-12.48Zm10.41 12.48c0 5.87-4.57 10.46-10.41 10.46s-10.48-4.69-10.48-10.46 4.6-10.39 10.48-10.39 10.41 4.66 10.41 10.39Z" class="cls-3"/><path d="M1091.48 320.25c0-2.39-1.89-4.19-4.4-4.19h-5.31v13.91h2.09v-5.59h2.53l3.33 5.59h2.3l-3.46-5.81c1.77-.54 2.92-2.05 2.92-3.91Zm-2.07-.02c0 1.27-.96 2.13-2.39 2.13h-3.17v-4.27h3.17c1.38 0 2.39.9 2.39 2.14Z" class="cls-3"/><path d="M468.95 148.38c-7.47-30.15-26.22-55.58-52.82-71.62-26.59-16.04-57.84-20.76-87.99-13.29-30.15 7.47-55.58 26.22-71.62 52.82-27.57 45.73-20.74 103.37 16.39 141.27 7.2-9.37 20.22-12.5 31.01-7.01.71.36 1.4.76 2.09 1.2a24.934 24.934 0 0 1 27.01-2.9c7.86 4 13.01 11.95 13.57 20.69 2.22.44 4.34 1.18 6.34 2.19 7.79 3.96 12.9 11.76 13.55 20.37 36.86-3.34 70.05-24.03 89.17-55.74 16.04-26.6 20.76-57.84 13.29-87.99Zm-104.3-28.2L381 100.74a2.557 2.557 0 0 1 3.61-.31c1.08.91 1.22 2.53.31 3.61l-13.05 15.52 19.06 1.07c1.41.08 2.5 1.29 2.42 2.7a2.565 2.565 0 0 1-2.56 2.42h-.15l-24.18-1.35c-.97-.05-1.83-.65-2.21-1.54-.39-.89-.23-1.93.39-2.67Zm-66.22 22.6a2.562 2.562 0 0 1-3.38-1.3c-.58-1.29 0-2.81 1.3-3.38l18.53-8.24-16.67-9.3a2.562 2.562 0 0 1-.99-3.49 2.562 2.562 0 0 1 3.49-.99l21.15 11.8c.85.47 1.36 1.38 1.31 2.35-.04.97-.63 1.83-1.52 2.23l-23.21 10.33Zm90.85 53.56c-7.27 12.05-20.11 18.73-33.25 18.73-6.81 0-13.7-1.79-19.95-5.56-17.91-10.8-23.53-41.82-23.76-43.13a2.57 2.57 0 0 1 1.93-2.94l72.2-17.13c1.28-.31 2.57.4 3.01 1.63.44 1.23 10.64 30.44-.18 48.38Z" class="cls-1"/><path d="M444.6 234.69c-.37-2.06-.6-4.17-.6-6.34V125.99c0-7.54 2.37-14.51 6.39-20.24-11.33 5.34-19.34 16.49-20.2 29.64-.05.77-.12 1.54-.12 2.33v102.36c0 6.46 1.76 12.5 4.79 17.71.94 1.62 2.02 3.15 3.2 4.6 4.42-4.21 8.55-8.81 12.35-13.78a35.308 35.308 0 0 1-5.81-13.91Z" style="fill:#b0475f;stroke-width:0"/><path d="M323.16 130.23c.04-.97-.46-1.88-1.31-2.35l-21.15-11.8c-1.24-.69-2.8-.25-3.49.99-.69 1.24-.25 2.8.99 3.49l16.67 9.3-18.53 8.24c-1.29.58-1.88 2.09-1.3 3.38.42.96 1.36 1.52 2.34 1.52.35 0 .7-.07 1.04-.22l23.21-10.33c.89-.39 1.48-1.26 1.52-2.23ZM366.47 124.39l24.18 1.35h.15a2.562 2.562 0 0 0 .14-5.12l-19.06-1.07 13.05-15.52c.91-1.08.77-2.7-.31-3.61-1.09-.91-2.7-.77-3.61.31l-16.35 19.44c-.63.74-.78 1.78-.39 2.67a2.56 2.56 0 0 0 2.21 1.54Z" class="cls-3"/><path d="M473.93 147.14c-7.79-31.48-27.38-58.03-55.15-74.77-27.77-16.74-60.4-21.68-91.87-13.88-31.47 7.79-58.03 27.38-74.77 55.15-29.35 48.66-21.37 110.25 19.4 149.77.57.55 1.36.81 2.14.7.78-.11 1.47-.57 1.87-1.26 5.27-9.09 16.72-12.49 26.08-7.73 1.03.52 2.02 1.15 3.04 1.93 1.01.77 2.43.69 3.34-.2 6.07-5.87 15.21-7.25 22.72-3.43 6.78 3.45 11.02 10.61 10.8 18.24-.04 1.34.96 2.48 2.28 2.62 2.42.26 4.71.94 6.82 2.01 6.87 3.49 11.11 10.74 10.8 18.47a2.563 2.563 0 0 0 2.56 2.67h.17c39.6-2.67 75.45-24.51 95.9-58.42 16.74-27.77 21.67-60.39 13.88-91.87ZM366.49 292.1c-.65-8.62-5.75-16.41-13.55-20.37-2-1.01-4.12-1.75-6.34-2.19-.55-8.74-5.7-16.69-13.57-20.69-8.83-4.49-19.42-3.28-27.01 2.9-.69-.45-1.38-.84-2.09-1.2-10.8-5.49-23.81-2.36-31.01 7.01-37.14-37.9-43.97-95.55-16.39-141.27C272.57 89.7 298 70.94 328.15 63.47c30.14-7.47 61.39-2.75 87.99 13.29 26.59 16.04 45.35 41.47 52.82 71.62 7.47 30.15 2.74 61.39-13.29 87.99-19.12 31.71-52.31 52.4-89.17 55.74Z" class="cls-3"/><path d="m386.45 146.32-72.2 17.13c-1.32.31-2.17 1.6-1.93 2.94.23 1.32 5.85 32.33 23.76 43.13a38.571 38.571 0 0 0 19.95 5.56c13.15 0 25.98-6.68 33.25-18.73 10.82-17.95.62-47.15.18-48.38a2.555 2.555 0 0 0-3.01-1.63Zm-47.73 58.8c-13.26-8-19.22-30-20.86-37.26l67.46-16c2.07 6.9 7.56 28.57-.44 41.83-9.57 15.88-30.28 21.01-46.16 11.43Z" class="cls-3"/><path d="M211.49 200.18c-.53.16-1.06.31-1.63.43l-.27.06H170c-6.32 0-11.46-5.14-11.46-11.46v-20.52c0-6.18 5.14-11.22 11.46-11.22l39.85.06c3.51.76 6.43 2.23 8.79 4.16 2.58-7.03 5.85-13.91 9.86-20.56 2.06-3.42 4.28-6.68 6.62-9.81a128.53 128.53 0 0 1 10.42-21.64c.55-.91 1.11-1.79 1.68-2.68-12.22-7.55-26.79-11.89-42.59-11.89h-76.65c-16.99 0-30.82 13.82-30.82 30.82v106.32c0 16.99 13.82 30.82 30.82 30.82h78.13c7.06 0 13.9-.97 20.41-2.74a119.335 119.335 0 0 1-15.03-60.12Z" class="cls-2"/><path d="M228.18 193.64c-2.87-21.06-.41-42.53 6.95-62.34a118.47 118.47 0 0 0-6.62 9.81c-4.01 6.65-7.28 13.54-9.86 20.56 5.39 4.39 7.89 11.17 7.89 17.39 0 8.5-4.68 18.07-15.05 21.12-.38 20.99 4.82 41.77 15.03 60.12 8.42-2.3 16.27-5.97 23.3-10.78-11.38-16.57-18.89-35.76-21.63-55.87Z" class="cls-5"/><path d="m251.31 251.63-.06-.09c-.48-.67-.96-1.35-1.43-2.03a76.955 76.955 0 0 1-23.3 10.78 77.215 77.215 0 0 1-20.41 2.74h-78.13c-16.99 0-30.82-13.82-30.82-30.82V125.89c0-16.99 13.82-30.82 30.82-30.82h76.65c15.8 0 30.37 4.35 42.59 11.89.44-.69.89-1.38 1.34-2.07.49-.75.99-1.49 1.49-2.23-13.03-8.07-28.57-12.73-45.43-12.73h-76.65c-19.82 0-35.94 16.12-35.94 35.94v106.32c0 19.82 16.12 35.94 35.94 35.94h78.13c17.31 0 33.39-5.36 46.68-14.49-.51-.68-1-1.36-1.49-2.04Z" class="cls-3"/><path d="m209.87 157.52-39.85-.06c-6.32 0-11.46 5.03-11.46 11.22v20.52c0 6.32 5.14 11.46 11.46 11.46h39.59l.27-.06c.56-.12 1.09-.27 1.63-.43 10.37-3.05 15.05-12.61 15.05-21.12 0-6.21-2.5-12.99-7.89-17.39-2.36-1.93-5.28-3.4-8.79-4.16Zm-46.19 31.68v-20.52c0-3.36 2.84-6.09 6.34-6.09h39.03c9.12 2.1 12.37 10.16 12.37 16.47 0 6.31-3.25 14.38-12.37 16.48h-39.03c-3.55 0-6.34-2.78-6.34-6.34Z" class="cls-3"/><path d="M595.42 95.17c-18.08 0-32.79 14.73-32.78 32.81l.02 45.74c0 1.74-1.24 3.3-3.02 3.79-1.75.49-3.55-.21-4.46-1.73l-32-61.94c-5.43-10.63-18.91-18.63-31.36-18.63h-13.1c-18.08.01-32.79 14.73-32.78 32.82l.05 102.36c0 18.08 14.73 32.79 32.81 32.78 18.08 0 32.79-14.73 32.78-32.81l-.02-45.74c0-1.74 1.03-3.22 2.62-3.78.44-.15.89-.23 1.33-.23 1.25 0 2.48.59 3.34 1.67l.28.43 31.93 62.05c5.38 10.3 19.05 18.38 31.11 18.37h13.35c18.08-.01 32.79-14.73 32.78-32.82l-.05-102.36c0-18.08-14.73-32.79-32.81-32.78Z" class="cls-2"/><path d="M617.5 206.19c-2.53-7.55-3.94-15.52-3.94-23.77l-.03-58.35c0-.75.06-1.48.11-2.22.4-6.08 2.38-11.7 5.58-16.44a33.463 33.463 0 0 0-11.25 8.33c-5.19 5.87-8.38 13.57-8.37 22.07l.03 58.35c0 18.22 6.79 35.15 17.74 48.96 2 2.53 4.13 4.96 6.4 7.27a35.188 35.188 0 0 0 7.53-19c-5.99-7.56-10.73-16.06-13.79-25.19Z" class="cls-5"/><path d="M595.42 90.04c-20.91 0-37.91 17.03-37.9 37.94l.02 41.19-29.79-57.68c-6.24-12.21-21.69-21.42-35.92-21.41h-13.1c-20.91.02-37.91 17.04-37.9 37.95l.05 102.36c0 20.91 17.03 37.91 37.94 37.9 20.91 0 37.91-17.03 37.9-37.94l-.02-41.18 29.81 57.93c6.2 11.86 21.86 21.15 35.66 21.14h13.35c20.91-.02 37.91-17.03 37.9-37.94l-.05-102.36c0-20.91-17.03-37.91-37.94-37.9Zm32.86 140.27c0 18.08-14.7 32.8-32.78 32.81h-13.35c-12.06.01-25.73-8.07-31.11-18.37l-31.93-62.05-.28-.43c-.86-1.08-2.09-1.67-3.34-1.67-.44 0-.89.08-1.33.23-1.59.56-2.62 2.04-2.62 3.78l.02 45.74c0 18.08-14.7 32.8-32.78 32.81-18.08 0-32.8-14.7-32.81-32.78l-.05-102.36c0-18.08 14.7-32.8 32.78-32.81h13.1c12.44-.01 25.92 7.99 31.36 18.62l32 61.94c.91 1.52 2.71 2.22 4.46 1.73 1.78-.49 3.02-2.05 3.02-3.79l-.02-45.74c0-18.08 14.7-32.8 32.78-32.81s32.8 14.7 32.81 32.78l.05 102.36Z" class="cls-3"/><path d="M760.77 95.09c-16.99 0-30.81 13.84-30.8 30.83l.03 54.64c0 17.27-13.28 26.31-26.41 26.31s-26.43-9.02-26.44-26.29l-.03-54.64c0-16.99-13.84-30.81-30.83-30.8-16.99 0-30.81 13.84-30.8 30.83l.03 58.35c.02 43.28 39.86 81.24 85.25 81.22h5.93c48.44-.03 84.95-37.63 84.92-87.48l-.02-52.17c0-16.99-13.84-30.81-30.83-30.8Z" class="cls-2"/><path d="M792.89 155.89c-4.26 0-8.31-.83-12.03-2.31-12.08-4.78-20.61-16.52-20.62-30.32 0-5.91 1.58-11.44 4.32-16.22-.41-.24-.81-.51-1.24-.73-10.15 5.53-17.02 16.29-17.01 28.68 0 18.05 14.6 32.63 32.65 32.62h15.83v-11.73h-1.9Z" class="cls-5"/><path d="M760.77 89.97c-19.82 0-35.93 16.14-35.93 35.96l.03 54.64c0 14.55-11.03 21.18-21.29 21.18s-21.3-6.62-21.31-21.16l-.03-54.64c0-19.82-16.14-35.94-35.96-35.93-19.82 0-35.94 16.14-35.93 35.96l.03 58.35c.02 46.02 42.26 86.36 90.38 86.34h5.93c51.36-.03 90.07-39.84 90.05-92.61l-.02-52.17c0-19.82-16.14-35.94-35.96-35.93Zm30.86 88.1c.02 49.85-36.49 87.46-84.92 87.48h-5.93c-45.39.02-85.23-37.93-85.25-81.21l-.03-58.35c0-16.99 13.81-30.82 30.8-30.83 16.99 0 30.82 13.81 30.83 30.8l.03 54.64c0 17.27 13.31 26.29 26.44 26.29s26.42-9.05 26.41-26.31l-.03-54.64c0-16.99 13.81-30.82 30.8-30.83 16.99 0 30.82 13.81 30.83 30.8l.02 52.17Z" class="cls-3"/><path d="m929.97 95.01-137.72.06c-16.58 0-30.07 13.51-30.06 30.09 0 16.58 13.5 30.07 30.09 30.06h24.73c6.11-.01 11.47 5.34 11.47 11.45l.03 63.55c0 18.08 14.73 32.79 32.81 32.78 18.08 0 32.79-14.73 32.78-32.81l-.03-63.55c0-6.21 5.13-11.47 11.21-11.47H930c16.58-.02 30.07-13.52 30.06-30.1 0-16.58-13.5-30.07-30.09-30.06Z" class="cls-2"/><path d="M927.23 107.98c-17.81 9.52-25.87 29.46-24.18 48.42.9-.34 1.85-.57 2.84-.57h13.26c-4.94-16.03-2.25-34.62 8.08-47.85Z" class="cls-5"/><path d="m929.97 89.89-137.72.06c-19.41 0-35.19 15.81-35.19 35.22s15.81 35.19 35.22 35.18h24.73c3.26-.01 6.34 3.07 6.34 6.32l.03 63.55c0 20.91 17.03 37.91 37.94 37.9 20.91 0 37.91-17.03 37.9-37.94l-.03-63.55c0-3.38 2.84-6.34 6.09-6.34H930c19.41-.02 35.19-15.82 35.19-35.23s-15.81-35.19-35.22-35.18Zm.03 65.28h-24.72c-6.08.01-11.22 5.27-11.21 11.48l.03 63.55c0 18.08-14.7 32.8-32.78 32.81-18.08 0-32.8-14.7-32.81-32.78l-.03-63.55c0-6.11-5.36-11.46-11.47-11.46h-24.73c-16.58.02-30.08-13.47-30.09-30.05 0-16.58 13.48-30.08 30.06-30.09l137.72-.06c16.58 0 30.08 13.48 30.09 30.06 0 16.58-13.48 30.08-30.06 30.09Z" class="cls-3"/><path d="m1046.52 169.63-79.12.04c-4.68 0-7.2-3.74-7.2-7.26s2.52-7.26 7.2-7.26l95.69-.04c16.72 0 30.32-13.51 30.31-30.09 0-16.58-13.62-30.07-30.34-30.06l-98.16.05c-31.75.01-46.2 24.2-46.19 46.66.01 22.46 14.48 46.63 46.23 46.62l79.62-.04c4.68 0 7.2 3.67 7.2 7.14 0 3.46-2.52 7.14-7.2 7.14l-96.18.04c-16.58 0-30.07 13.62-30.06 30.33 0 16.58 13.5 30.07 30.09 30.06l98.16-.05c25.72-.01 46.63-20.95 46.62-46.66-.01-25.72-20.94-46.63-46.66-46.62Z" class="cls-2"/><path d="m1046.51 164.51-79.12.04c-1.92 0-2.07-1.63-2.07-2.13s.15-2.13 2.07-2.13l95.69-.04c19.55 0 35.44-15.81 35.43-35.22s-15.92-35.19-35.47-35.18l-98.16.05c-35.27.02-51.32 26.86-51.31 51.79.01 24.93 16.09 51.76 51.36 51.74l79.62-.04c1.92 0 2.07 1.54 2.07 2.01s-.15 2.01-2.07 2.01l-96.18.04c-19.41 0-35.19 15.92-35.19 35.46 0 19.41 15.81 35.19 35.22 35.18l98.16-.05c28.55-.01 51.76-23.25 51.74-51.79-.01-28.54-23.25-51.76-51.79-51.74Zm.05 98.41-98.16.05c-16.58 0-30.08-13.48-30.09-30.06 0-16.72 13.48-30.33 30.06-30.33l96.18-.04c4.68 0 7.2-3.68 7.2-7.14 0-3.46-2.53-7.14-7.2-7.14l-79.62.04c-31.75.01-46.22-24.16-46.23-46.62-.01-22.46 14.44-46.65 46.19-46.66l98.16-.05c16.72 0 30.33 13.48 30.34 30.06 0 16.58-13.59 30.08-30.31 30.09l-95.69.04c-4.68 0-7.2 3.74-7.2 7.26s2.53 7.26 7.2 7.26l79.12-.04c25.72-.01 46.65 20.9 46.66 46.62.01 25.72-20.9 46.65-46.62 46.66Z" class="cls-3"/></svg>