<svg xmlns="http://www.w3.org/2000/svg" width="140" height="62" fill="none"><g filter="url(#a)"><path fill="#EB4749" d="M25.19 37.61h-2.125c-.733 0-1.1-.147-1.54-1.173L16.763 26.25c-.147-.294-.22-.587-.586-.587-.294 0-.44.147-.44.44v23.16c0 1.539-1.32 2.858-2.858 2.858h-5.35c-1.54 0-2.786-1.32-2.786-2.858V3.676c0-1.612 1.246-2.858 2.785-2.858h4.251c1.32 0 2.272.806 2.712 1.979l9.015 21.62c.146.367.366.513.586.513.22 0 .513-.146.66-.513l9.014-21.62c.44-1.173 1.393-1.979 2.712-1.979h4.178a2.862 2.862 0 0 1 2.858 2.858v45.587c0 1.539-1.32 2.858-2.858 2.858h-5.35c-1.54 0-2.786-1.32-2.786-2.858v-23.16c0-.293-.22-.44-.513-.44-.366 0-.44.293-.586.587l-4.764 10.187c-.513 1.026-.733 1.173-1.466 1.173ZM69.56 52.12H49.184c-1.539 0-2.858-1.32-2.858-2.858V3.676A2.862 2.862 0 0 1 49.184.818H69.56c1.612 0 2.858 1.246 2.858 2.858v5.277c0 1.613-1.246 2.859-2.858 2.859h-12.24v9.16h9.088a2.862 2.862 0 0 1 2.859 2.859v5.277a2.862 2.862 0 0 1-2.859 2.858H57.32v9.161h12.24c1.612 0 2.858 1.246 2.858 2.859v5.277a2.862 2.862 0 0 1-2.858 2.858Zm13.746 0h-5.277a2.862 2.862 0 0 1-2.859-2.858V3.676c0-1.612 1.246-2.858 2.859-2.858h5.277c1.319 0 2.418.88 2.785 2.052l5.277 20.814c.073.44.44.66.733.66s.513-.22.513-.66V3.677A2.862 2.862 0 0 1 95.47.818h5.35c1.539 0 2.785 1.246 2.785 2.858v45.587c0 1.539-1.246 2.858-2.785 2.858h-5.35c-1.246 0-2.346-.806-2.712-2.052l-5.35-20.815c-.147-.44-.367-.66-.66-.66-.293 0-.586.294-.586.66v20.009c0 1.539-1.32 2.858-2.858 2.858Zm34.063-48.445v33.567c0 4.104 1.613 4.91 3.225 4.91 3.005 0 3.518-2.271 3.518-4.91V3.676a2.862 2.862 0 0 1 2.858-2.858h5.351c1.539 0 2.785 1.246 2.785 2.858v32.76c0 8.43-3.738 16.638-13.339 16.638h-2.052c-9.601 0-13.339-8.209-13.339-16.637V3.677c0-1.613 1.246-2.859 2.785-2.859h5.35a2.862 2.862 0 0 1 2.858 2.858Z"/><path fill="#000" d="m21.526 36.437.46-.197-.004-.008-.003-.007-.453.212ZM16.762 26.25l.453-.212-.006-.012-.447.224ZM14.49 2.797l-.468.175.003.009.003.008.462-.192Zm9.015 21.62.464-.185-.003-.007-.461.192Zm1.245 0-.461-.192-.003.007.464.185Zm9.015-21.62.462.192.003-.008.003-.009-.468-.175ZM31.42 26.25l-.447-.224-.006.012.453.212Zm-4.764 10.187.447.224.006-.012-.453-.212Zm-1.466.673h-2.125v1h2.125v-1Zm-2.125 0c-.345 0-.488-.04-.595-.113-.119-.082-.274-.267-.485-.757l-.919.394c.23.535.477.938.835 1.185.37.256.776.29 1.164.29v-1Zm-1.086-.885-4.764-10.187-.906.423 4.764 10.188.906-.424Zm-4.77-10.199c-.04-.08-.05-.107-.099-.21a1.627 1.627 0 0 0-.159-.27.95.95 0 0 0-.316-.274.971.971 0 0 0-.46-.109v1c.023 0 .014.004-.007-.007-.02-.01-.026-.021-.017-.01.012.016.03.045.059.106l.046.099c.017.036.037.079.059.122l.894-.447Zm-1.033-.863c-.224 0-.484.056-.684.257-.2.2-.256.46-.256.683h1c0-.033.004-.042.002-.034a.16.16 0 0 1-.039.058.16.16 0 0 1-.058.038c-.007.003.002-.002.035-.002v-1Zm-.94.94v23.16h1v-23.16h-1Zm0 23.16c0 1.263-1.096 2.358-2.358 2.358v1c1.815 0 3.358-1.543 3.358-3.358h-1Zm-2.358 2.358h-5.35v1h5.35v-1Zm-5.35 0c-1.247 0-2.286-1.078-2.286-2.358h-1c0 1.798 1.453 3.358 3.285 3.358v-1Zm-2.286-2.358V3.676h-1v45.587h1Zm0-45.587c0-1.344 1.03-2.358 2.285-2.358v-1c-1.823 0-3.285 1.478-3.285 3.358h1Zm2.285-2.358h4.251v-1h-4.25v1Zm4.251 0c1.077 0 1.864.643 2.244 1.654l.936-.35c-.5-1.334-1.618-2.304-3.18-2.304v1Zm2.25 1.671 9.015 21.62.923-.384-9.015-21.62-.923.384Zm9.012 21.614c.194.484.559.827 1.05.827v-1c.01 0 .01.006-.003-.006a.48.48 0 0 1-.118-.192l-.929.371Zm1.05.827c.434 0 .905-.279 1.125-.827l-.929-.371a.358.358 0 0 1-.122.168.19.19 0 0 1-.067.03h-.006v1Zm1.122-.82 9.015-21.62-.923-.386-9.015 21.62.923.386Zm9.021-21.638c.38-1.011 1.168-1.654 2.244-1.654v-1c-1.562 0-2.68.97-3.18 2.303l.936.351Zm2.244-1.654h4.178v-1h-4.178v1Zm4.178 0a2.362 2.362 0 0 1 2.358 2.358h1c0-1.897-1.552-3.358-3.358-3.358v1Zm2.358 2.358v45.587h1V3.676h-1Zm0 45.587c0 1.263-1.096 2.358-2.358 2.358v1c1.815 0 3.358-1.543 3.358-3.358h-1Zm-2.358 2.358h-5.35v1h5.35v-1Zm-5.35 0c-1.247 0-2.286-1.078-2.286-2.358h-1c0 1.798 1.453 3.358 3.285 3.358v-1Zm-2.286-2.358v-23.16h-1v23.16h1Zm0-23.16a.901.901 0 0 0-.334-.72 1.077 1.077 0 0 0-.679-.22v1c.033 0 .053.004.062.007.009.003.004.003-.008-.006a.126.126 0 0 1-.034-.045c-.008-.018-.007-.026-.007-.016h1Zm-1.013-.94a.97.97 0 0 0-.459.109.95.95 0 0 0-.316.275c-.071.094-.122.193-.16.27-.049.102-.058.129-.098.209l.894.447c.022-.043.042-.086.059-.122l.046-.1a.69.69 0 0 1 .059-.105c.008-.011.003 0-.017.01-.021.011-.03.007-.008.007v-1Zm-1.039.875-4.764 10.187.906.424 4.764-10.188-.906-.423Zm-4.758 10.175c-.262.524-.402.715-.511.801-.072.056-.163.096-.508.096v1c.389 0 .774-.035 1.124-.308.311-.244.538-.639.79-1.142l-.895-.447Zm31.11-24.401v-.5h-.5v.5h.5Zm0 9.16h-.5v.5h.5v-.5Zm0 10.994v-.5h-.5v.5h.5Zm0 9.161h-.5v.5h.5v-.5Zm12.24 10.494H49.184v1H69.56v-1Zm-20.375 0c-1.263 0-2.358-1.095-2.358-2.358h-1c0 1.815 1.543 3.358 3.358 3.358v-1Zm-2.358-2.358V3.676h-1v45.587h1Zm0-45.587a2.362 2.362 0 0 1 2.358-2.358v-1c-1.807 0-3.358 1.461-3.358 3.358h1Zm2.358-2.358H69.56v-1H49.184v1Zm20.375 0c1.336 0 2.358 1.022 2.358 2.358h1c0-1.888-1.47-3.358-3.358-3.358v1Zm2.358 2.358v5.277h1V3.676h-1Zm0 5.277c0 1.336-1.022 2.359-2.358 2.359v1c1.888 0 3.358-1.47 3.358-3.359h-1Zm-2.358 2.359h-12.24v1h12.24v-1Zm-12.74.5v9.16h1v-9.16h-1Zm.5 9.66h9.088v-1H57.32v1Zm9.088 0a2.362 2.362 0 0 1 2.359 2.359h1c0-1.897-1.552-3.358-3.359-3.358v1Zm2.359 2.359v5.277h1V23.83h-1Zm0 5.277a2.362 2.362 0 0 1-2.359 2.358v1c1.807 0 3.359-1.461 3.359-3.358h-1Zm-2.359 2.358H57.32v1h9.088v-1Zm-9.588.5v9.161h1v-9.16h-1Zm.5 9.661h12.24v-1h-12.24v1Zm12.24 0c1.336 0 2.358 1.023 2.358 2.359h1c0-1.889-1.47-3.358-3.358-3.358v1Zm2.358 2.359v5.277h1v-5.277h-1Zm0 5.277a2.362 2.362 0 0 1-2.358 2.358v1c1.897 0 3.358-1.552 3.358-3.358h-1ZM86.09 2.87l.484-.123-.003-.013-.004-.013-.477.15Zm5.277 20.814.493-.082-.004-.02-.005-.02-.484.122Zm1.392 26.385-.484.124.002.009.002.008.48-.141Zm-5.35-20.815.484-.124-.004-.017-.006-.017-.474.159Zm-4.104 22.367h-5.277v1h5.277v-1Zm-5.277 0a2.362 2.362 0 0 1-2.359-2.358h-1c0 1.806 1.462 3.358 3.359 3.358v-1Zm-2.359-2.358V3.676h-1v45.587h1Zm0-45.587c0-1.336 1.023-2.358 2.359-2.358v-1c-1.889 0-3.359 1.47-3.359 3.358h1Zm2.359-2.358h5.277v-1h-5.277v1Zm5.277 0c1.09 0 2.003.727 2.307 1.701l.955-.298A3.426 3.426 0 0 0 83.305.318v1Zm2.3 1.675 5.277 20.814.97-.245-5.278-20.815-.969.246Zm5.268 20.774a1.267 1.267 0 0 0 1.227 1.077v-1a.24.24 0 0 1-.137-.055.288.288 0 0 1-.103-.187l-.987.165Zm1.227 1.077a.96.96 0 0 0 .75-.345c.188-.225.263-.516.263-.814h-1c0 .14-.036.18-.031.174a.056.056 0 0 1 .018-.013c.009-.004.01-.002 0-.002v1Zm1.013-1.16V3.677h-1v20.008h1Zm0-20.008a2.362 2.362 0 0 1 2.358-2.358v-1c-1.807 0-3.359 1.461-3.359 3.358h1Zm2.358-2.358h5.35v-1h-5.35v1Zm5.35 0c1.254 0 2.285 1.014 2.285 2.358h1c0-1.88-1.461-3.358-3.285-3.358v1Zm2.285 2.358v45.587h1V3.676h-1Zm0 45.587c0 1.28-1.039 2.358-2.285 2.358v1c1.832 0 3.285-1.56 3.285-3.358h-1Zm-2.285 2.358h-5.35v1h5.35v-1Zm-5.35 0c-1.023 0-1.928-.66-2.232-1.693l-.96.282c.43 1.458 1.723 2.411 3.192 2.411v-1Zm-2.228-1.677-5.35-20.814-.968.249 5.35 20.814.968-.249Zm-5.36-20.848c-.168-.505-.508-1.001-1.134-1.001v1h.009l.006.004a.13.13 0 0 1 .017.014c.034.035.094.12.154.3l.948-.317Zm-1.134-1.001c-.606 0-1.086.555-1.086 1.16h1a.19.19 0 0 1 .05-.129c.035-.037.055-.031.036-.031v-1Zm-1.086 1.16v20.008h1V29.255h-1Zm0 20.008c0 1.263-1.095 2.358-2.358 2.358v1c1.815 0 3.358-1.543 3.358-3.358h-1Zm31.205-45.587v33.567h1V3.676h-1Zm0 33.567c0 2.101.41 3.47 1.127 4.317.734.868 1.709 1.093 2.598 1.093v-1c-.723 0-1.36-.177-1.835-.739-.493-.582-.89-1.668-.89-3.67h-1Zm3.725 5.41c.814 0 1.495-.153 2.055-.456a3.157 3.157 0 0 0 1.267-1.265c.572-1.019.696-2.36.696-3.689h-1c0 1.31-.132 2.423-.568 3.2a2.16 2.16 0 0 1-.87.874c-.382.206-.891.337-1.58.337v1Zm4.018-5.41V3.676h-1v33.567h1Zm0-33.567a2.362 2.362 0 0 1 2.358-2.358v-1c-1.806 0-3.358 1.461-3.358 3.358h1Zm2.358-2.358h5.351v-1h-5.351v1Zm5.351 0c1.254 0 2.285 1.014 2.285 2.358h1c0-1.88-1.462-3.358-3.285-3.358v1Zm2.285 2.358v32.76h1V3.677h-1Zm0 32.76c0 4.152-.922 8.201-2.981 11.197-2.043 2.972-5.225 4.94-9.858 4.94v1c4.967 0 8.455-2.134 10.682-5.374 2.21-3.215 3.157-7.485 3.157-11.762h-1Zm-12.839 16.138h-2.052v1h2.052v-1Zm-2.052 0c-4.634 0-7.815-1.97-9.858-4.941-2.059-2.996-2.981-7.045-2.981-11.196h-1c0 4.277.947 8.547 3.157 11.762 2.226 3.24 5.714 5.375 10.682 5.375v-1Zm-12.839-16.137V3.677h-1v32.76h1Zm0-32.76c0-1.345 1.031-2.359 2.285-2.359v-1c-1.824 0-3.285 1.478-3.285 3.358h1Zm2.285-2.359h5.35v-1h-5.35v1Zm5.35 0a2.361 2.361 0 0 1 2.358 2.358h1c0-1.897-1.551-3.358-3.358-3.358v1Z"/></g><defs><filter id="a" width="138.362" height="60.256" x=".742" y=".818" color-interpolation-filters="sRGB" filterUnits="userSpaceOnUse"><feFlood flood-opacity="0" result="BackgroundImageFix"/><feColorMatrix in="SourceAlpha" result="hardAlpha" values="0 0 0 0 0 0 0 0 0 0 0 0 0 0 0 0 0 0 127 0"/><feOffset dy="4"/><feGaussianBlur stdDeviation="2"/><feComposite in2="hardAlpha" operator="out"/><feColorMatrix values="0 0 0 0 0 0 0 0 0 0 0 0 0 0 0 0 0 0 0.25 0"/><feBlend in2="BackgroundImageFix" result="effect1_dropShadow_5_1123"/><feBlend in="SourceGraphic" in2="effect1_dropShadow_5_1123" result="shape"/></filter></defs></svg>