<svg xmlns="http://www.w3.org/2000/svg" width="153" height="55" fill="none"><path fill="#EB4749" d="M15.134 11.712h-.293c-1.613 0-3.225.806-3.225 4.91v21.621c0 4.104 1.612 4.91 3.225 4.91h.293c1.612 0 3.225-.806 3.225-4.91v-21.62c0-4.105-1.613-4.91-3.225-4.91Zm.88 42.362H13.96c-9.6 0-13.339-8.209-13.339-16.637V17.429C.622 9 4.36.792 13.962.792h2.051c9.601 0 13.34 8.208 13.34 16.637v20.008c0 8.428-3.739 16.637-13.34 16.637Zm24.235-.953H34.9c-1.539 0-2.785-1.32-2.785-2.858V4.676c0-1.612 1.246-2.858 2.785-2.858h12.606c9.601 0 13.339 8.282 13.339 16.637v.806c0 5.57-1.612 11.14-5.57 14.145l5.423 16.124c.074.293.147.586.147.88 0 1.319-.88 2.711-2.345 2.711h-5.497c-1.393 0-2.785-.513-3.298-1.906L44.5 35.971h-1.392v14.292c0 1.539-1.32 2.858-2.858 2.858Zm6.377-39.577h-3.518v10.7h3.518c1.612 0 3.224-.879 3.224-4.983v-.806c0-4.104-1.612-4.91-3.224-4.91Zm45.49 1.466v24.846c0 7.255-5.937 13.265-13.266 13.265H66.464a2.862 2.862 0 0 1-2.858-2.858V4.603a2.862 2.862 0 0 1 2.858-2.858H78.85c7.33 0 13.266 6.01 13.266 13.265ZM74.6 12.738v29.39h2.858c1.979 0 3.664-1.686 3.664-3.738V16.476c0-2.052-1.685-3.738-3.664-3.738H74.6Zm43.516 40.383H97.742c-1.54 0-2.859-1.32-2.859-2.858V4.676a2.862 2.862 0 0 1 2.859-2.858h20.374c1.612 0 2.858 1.246 2.858 2.858v5.277c0 1.613-1.246 2.859-2.858 2.859h-12.239v9.16h9.088a2.862 2.862 0 0 1 2.858 2.859v5.277a2.862 2.862 0 0 1-2.858 2.858h-9.088v9.161h12.239c1.612 0 2.858 1.246 2.858 2.859v5.277a2.862 2.862 0 0 1-2.858 2.858Zm13.746 0h-5.35c-1.539 0-2.785-1.32-2.785-2.858V4.676c0-1.612 1.246-2.858 2.785-2.858h12.606c9.601 0 13.338 8.282 13.338 16.637v.806c0 5.57-1.612 11.14-5.57 14.145l5.424 16.124c.073.293.146.586.146.88 0 1.319-.879 2.711-2.345 2.711h-5.497c-1.392 0-2.785-.513-3.298-1.906l-5.203-15.244h-1.393v14.292c0 1.539-1.319 2.858-2.858 2.858Zm6.376-39.577h-3.518v10.7h3.518c1.613 0 3.225-.879 3.225-4.983v-.806c0-4.104-1.612-4.91-3.225-4.91Z"/><path fill="#000" d="M15.134 11.212h-.293v1h.293v-1Zm-.293 0c-.89 0-1.865.225-2.599 1.093-.716.847-1.126 2.216-1.126 4.317h1c0-2.003.396-3.088.89-3.67.474-.562 1.112-.74 1.835-.74v-1Zm-3.725 5.41v21.621h1v-21.62h-1Zm0 21.621c0 2.101.41 3.47 1.126 4.317.734.868 1.71 1.093 2.599 1.093v-1c-.723 0-1.36-.177-1.836-.739-.493-.582-.889-1.668-.889-3.67h-1Zm3.725 5.41h.293v-1h-.293v1Zm.293 0c.89 0 1.864-.225 2.599-1.093.716-.846 1.126-2.216 1.126-4.317h-1c0 2.003-.397 3.089-.89 3.671-.475.562-1.112.74-1.835.74v1Zm3.725-5.41v-21.62h-1v21.62h1Zm0-21.62c0-2.102-.41-3.471-1.126-4.318-.735-.868-1.71-1.093-2.6-1.093v1c.724 0 1.361.178 1.836.74.493.582.89 1.667.89 3.67h1Zm-2.846 36.95h-2.052v1h2.052v-1Zm-2.052 0c-4.633 0-7.815-1.968-9.857-4.94-2.06-2.996-2.982-7.045-2.982-11.196h-1c0 4.277.947 8.547 3.157 11.762 2.227 3.24 5.715 5.375 10.682 5.375v-1ZM1.122 37.438V17.429h-1v20.008h1Zm0-20.008c0-4.151.923-8.2 2.982-11.196C6.146 3.26 9.328 1.292 13.96 1.292v-1C8.994.292 5.506 2.427 3.28 5.666 1.07 8.882.122 13.152.122 17.43h1Zm12.84-16.137h2.051v-1h-2.052v1Zm2.051 0c4.634 0 7.815 1.97 9.858 4.94 2.06 2.997 2.981 7.046 2.981 11.197h1c0-4.277-.947-8.547-3.157-11.763C24.47 2.427 20.981.292 16.013.292v1Zm12.84 16.137v20.008h1V17.429h-1Zm0 20.008c0 4.151-.923 8.2-2.982 11.196-2.043 2.972-5.224 4.94-9.858 4.94v1c4.968 0 8.456-2.134 10.682-5.374 2.21-3.215 3.157-7.485 3.157-11.762h-1Zm26.42-4.031-.301-.398-.287.217.115.34.474-.159Zm5.424 16.124.485-.122-.004-.019-.007-.019-.474.16Zm-10.993 1.685-.473.162.004.011.469-.173ZM44.5 35.971l.474-.161-.116-.339H44.5v.5Zm-1.392 0v-.5h-.5v.5h.5Zm0-22.427v-.5h-.5v.5h.5Zm0 10.7h-.5v.5h.5v-.5ZM40.25 52.622H34.9v1h5.35v-1Zm-5.35 0c-1.247 0-2.286-1.078-2.286-2.358h-1c0 1.798 1.453 3.358 3.285 3.358v-1Zm-2.286-2.358V4.676h-1v45.587h1Zm0-45.587c0-1.344 1.03-2.358 2.285-2.358v-1c-1.823 0-3.285 1.478-3.285 3.358h1ZM34.9 2.318h12.606v-1H34.9v1Zm12.606 0c4.632 0 7.814 1.986 9.857 4.968 2.06 3.005 2.982 7.055 2.982 11.169h1c0-4.241-.947-8.51-3.157-11.734-2.225-3.248-5.713-5.403-10.682-5.403v1Zm12.839 16.137v.806h1v-.806h-1Zm0 .806c0 5.506-1.598 10.88-5.372 13.747l.604.796c4.14-3.144 5.768-8.909 5.768-14.543h-1ZM54.8 33.565l5.424 16.124.947-.319-5.423-16.123-.948.318Zm5.412 16.086c.076.305.132.537.132.758h1c0-.365-.091-.72-.162-1l-.97.242Zm.132.758c0 1.162-.761 2.212-1.845 2.212v1c1.847 0 2.845-1.735 2.845-3.212h-1Zm-1.845 2.212h-5.497v1h5.497v-1Zm-5.497 0c-1.301 0-2.422-.474-2.829-1.578l-.938.345c.619 1.68 2.283 2.233 3.767 2.233v-1Zm-2.825-1.567L44.974 35.81l-.947.323 5.204 15.244.946-.323ZM44.5 35.47h-1.392v1H44.5v-1Zm-1.892.5v14.292h1V35.97h-1Zm0 14.292c0 1.263-1.096 2.358-2.358 2.358v1c1.815 0 3.358-1.543 3.358-3.358h-1Zm4.018-37.219h-3.518v1h3.518v-1Zm-4.018.5v10.7h1v-10.7h-1Zm.5 11.2h3.518v-1h-3.518v1Zm3.518 0c.9 0 1.872-.249 2.602-1.134.712-.863 1.122-2.247 1.122-4.349h-1c0 2.002-.395 3.11-.893 3.713-.48.58-1.119.77-1.831.77v1Zm3.724-5.483v-.806h-1v.806h1Zm0-.806c0-2.101-.41-3.471-1.126-4.317-.734-.868-1.709-1.094-2.598-1.094v1c.723 0 1.36.178 1.835.74.493.582.89 1.668.89 3.67h1Zm24.25-5.717v-.5h-.5v.5h.5Zm0 29.39h-.5v.5h.5v-.5ZM91.616 15.01v24.846h1V15.01h-1Zm0 24.846c0 6.98-5.715 12.765-12.766 12.765v1c7.607 0 13.766-6.236 13.766-13.766h-1ZM78.85 52.62H66.464v1H78.85v-1Zm-12.386 0a2.362 2.362 0 0 1-2.358-2.358h-1c0 1.806 1.462 3.358 3.358 3.358v-1Zm-2.358-2.358V4.603h-1v45.66h1Zm0-45.66a2.362 2.362 0 0 1 2.358-2.358v-1c-1.896 0-3.358 1.551-3.358 3.358h1Zm2.358-2.358H78.85v-1H66.464v1Zm12.386 0c7.052 0 12.766 5.784 12.766 12.765h1c0-7.53-6.159-13.765-13.766-13.765v1ZM74.1 12.738v29.39h1v-29.39h-1Zm.5 29.89h2.858v-1H74.6v1Zm2.858 0c2.261 0 4.164-1.916 4.164-4.238h-1c0 1.782-1.468 3.237-3.164 3.237v1Zm4.164-4.238V16.476h-1V38.39h1Zm0-21.914c0-2.322-1.903-4.238-4.164-4.238v1c1.696 0 3.164 1.456 3.164 3.238h1Zm-4.164-4.238H74.6v1h2.858v-1Zm28.419.574v-.5h-.5v.5h.5Zm0 9.16h-.5v.5h.5v-.5Zm0 10.994v-.5h-.5v.5h.5Zm0 9.161h-.5v.5h.5v-.5Zm12.239 10.494H97.742v1h20.374v-1Zm-20.374 0c-1.264 0-2.359-1.095-2.359-2.358h-1c0 1.815 1.543 3.358 3.359 3.358v-1Zm-2.359-2.358V4.676h-1v45.587h1Zm0-45.587a2.362 2.362 0 0 1 2.359-2.358v-1c-1.807 0-3.359 1.461-3.359 3.358h1Zm2.359-2.358h20.374v-1H97.742v1Zm20.374 0c1.336 0 2.358 1.022 2.358 2.358h1c0-1.888-1.469-3.358-3.358-3.358v1Zm2.358 2.358v5.277h1V4.676h-1Zm0 5.277c0 1.336-1.022 2.359-2.358 2.359v1c1.889 0 3.358-1.47 3.358-3.359h-1Zm-2.358 2.359h-12.239v1h12.239v-1Zm-12.739.5v9.16h1v-9.16h-1Zm.5 9.66h9.088v-1h-9.088v1Zm9.088 0a2.362 2.362 0 0 1 2.358 2.359h1c0-1.897-1.552-3.358-3.358-3.358v1Zm2.358 2.359v5.277h1V24.83h-1Zm0 5.277a2.362 2.362 0 0 1-2.358 2.358v1c1.806 0 3.358-1.461 3.358-3.358h-1Zm-2.358 2.358h-9.088v1h9.088v-1Zm-9.588.5v9.161h1v-9.16h-1Zm.5 9.661h12.239v-1h-12.239v1Zm12.239 0c1.336 0 2.358 1.023 2.358 2.359h1c0-1.889-1.469-3.358-3.358-3.358v1Zm2.358 2.359v5.277h1v-5.277h-1Zm0 5.277a2.362 2.362 0 0 1-2.358 2.358v1c1.897 0 3.358-1.552 3.358-3.358h-1Zm26.412-16.857-.302-.398-.286.217.115.34.473-.159Zm5.424 16.124.485-.122-.005-.019-.006-.019-.474.16Zm-10.994 1.685-.473.162.004.011.469-.173Zm-5.203-15.244.473-.161-.116-.339h-.357v.5Zm-1.393 0v-.5h-.5v.5h.5Zm0-22.427v-.5h-.5v.5h.5Zm0 10.7h-.5v.5h.5v-.5Zm-2.858 28.377h-5.35v1h5.35v-1Zm-5.35 0c-1.246 0-2.285-1.078-2.285-2.358h-1c0 1.798 1.453 3.358 3.285 3.358v-1Zm-2.285-2.358V4.676h-1v45.587h1Zm0-45.587c0-1.344 1.03-2.358 2.285-2.358v-1c-1.824 0-3.285 1.478-3.285 3.358h1Zm2.285-2.358h12.606v-1h-12.606v1Zm12.606 0c4.632 0 7.814 1.986 9.857 4.968 2.06 3.005 2.981 7.055 2.981 11.169h1c0-4.241-.947-8.51-3.156-11.734-2.226-3.248-5.713-5.403-10.682-5.403v1Zm12.838 16.137v.806h1v-.806h-1Zm0 .806c0 5.506-1.597 10.88-5.372 13.747l.605.796c4.14-3.144 5.767-8.909 5.767-14.543h-1Zm-5.543 14.304 5.423 16.124.948-.319-5.424-16.123-.947.318Zm5.412 16.086c.076.305.131.537.131.758h1c0-.365-.091-.72-.161-1l-.97.242Zm.131.758c0 1.162-.761 2.212-1.845 2.212v1c1.848 0 2.845-1.735 2.845-3.212h-1Zm-1.845 2.212h-5.497v1h5.497v-1Zm-5.497 0c-1.301 0-2.421-.474-2.828-1.578l-.939.345c.619 1.68 2.283 2.233 3.767 2.233v-1Zm-2.824-1.567-5.204-15.244-.946.323 5.203 15.244.947-.323Zm-5.677-15.583h-1.393v1h1.393v-1Zm-1.893.5v14.292h1V35.97h-1Zm0 14.292c0 1.263-1.095 2.358-2.358 2.358v1c1.815 0 3.358-1.543 3.358-3.358h-1Zm4.018-37.219h-3.518v1h3.518v-1Zm-4.018.5v10.7h1v-10.7h-1Zm.5 11.2h3.518v-1h-3.518v1Zm3.518 0c.9 0 1.873-.249 2.603-1.134.712-.863 1.122-2.247 1.122-4.349h-1c0 2.002-.396 3.11-.893 3.713-.48.58-1.119.77-1.832.77v1Zm3.725-5.483v-.806h-1v.806h1Zm0-.806c0-2.101-.41-3.471-1.126-4.317-.734-.868-1.709-1.094-2.599-1.094v1c.723 0 1.361.178 1.836.74.493.582.889 1.668.889 3.67h1Z"/></svg>